{
	"asset":{
		"generator":"Khronos glTF Blender I/O v4.3.47",
		"version":"2.0"
	},
	"scene":0,
	"scenes":[
		{
			"name":"Scene",
			"nodes":[
				0
			]
		}
	],
	"nodes":[
		{
			"mesh":0,
			"name":"Suzanne",
			"translation":[
				0,
				1.8621169328689575,
				0
			]
		}
	],
	"meshes":[
		{
			"name":"Suzanne",
			"primitives":[
				{
					"attributes":{
						"POSITION":0,
						"NORMAL":1,
						"TEXCOORD_0":2
					},
					"indices":3
				}
			]
		}
	],
	"accessors":[
		{
			"bufferView":0,
			"componentType":5126,
			"count":3078,
			"max":[
				1.4464261531829834,
				1.991720199584961,
				0.8515625
			],
			"min":[
				-1.3671875,
				-0.984375,
				-0.8515625
			],
			"type":"VEC3"
		},
		{
			"bufferView":1,
			"componentType":5126,
			"count":3078,
			"type":"VEC3"
		},
		{
			"bufferView":2,
			"componentType":5126,
			"count":3078,
			"type":"VEC2"
		},
		{
			"bufferView":3,
			"componentType":5123,
			"count":5016,
			"type":"SCALAR"
		}
	],
	"bufferViews":[
		{
			"buffer":0,
			"byteLength":36936,
			"byteOffset":0,
			"target":34962
		},
		{
			"buffer":0,
			"byteLength":36936,
			"byteOffset":36936,
			"target":34962
		},
		{
			"buffer":0,
			"byteLength":24624,
			"byteOffset":73872,
			"target":34962
		},
		{
			"buffer":0,
			"byteLength":10032,
			"byteOffset":98496,
			"target":34963
		}
	],
	"buffers":[
		{
			"byteLength":108528,
			"uri":"suzanne.bin"
		}
	]
}
