{
	"asset":{
		"generator":"Khronos glTF Blender I/O v4.2.70",
		"version":"2.0"
	},
	"scene":0,
	"scenes":[
		{
			"name":"Scene",
			"nodes":[
				0
			]
		}
	],
	"nodes":[
		{
			"mesh":0,
			"name":"Sphere"
		}
	],
	"meshes":[
		{
			"name":"Sphere",
			"primitives":[
				{
					"attributes":{
						"POSITION":0,
						"NORMAL":1,
						"TEXCOORD_0":2
					},
					"indices":3
				}
			]
		}
	],
	"accessors":[
		{
			"bufferView":0,
			"componentType":5126,
			"count":2034,
			"max":[
				0.10477101802825928,
				0.3505430817604065,
				-0.058991312980651855
			],
			"min":[
				-0.5963178873062134,
				-0.3505462408065796,
				-0.7600804567337036
			],
			"type":"VEC3"
		},
		{
			"bufferView":1,
			"componentType":5126,
			"count":2034,
			"type":"VEC3"
		},
		{
			"bufferView":2,
			"componentType":5126,
			"count":2034,
			"type":"VEC2"
		},
		{
			"bufferView":3,
			"componentType":5123,
			"count":2880,
			"type":"SCALAR"
		}
	],
	"bufferViews":[
		{
			"buffer":0,
			"byteLength":24408,
			"byteOffset":0,
			"target":34962
		},
		{
			"buffer":0,
			"byteLength":24408,
			"byteOffset":24408,
			"target":34962
		},
		{
			"buffer":0,
			"byteLength":16272,
			"byteOffset":48816,
			"target":34962
		},
		{
			"buffer":0,
			"byteLength":5760,
			"byteOffset":65088,
			"target":34963
		}
	],
	"buffers":[
		{
			"byteLength":70848,
			"uri":"2triangles_transformed.bin"
		}
	]
}
