{
	"asset":{
		"generator":"Khronos glTF Blender I/O v4.2.69",
		"version":"2.0"
	},
	"scene":0,
	"scenes":[
		{
			"name":"Scene",
			"nodes":[
				0,
				1
			]
		}
	],
	"nodes":[
		{
			"mesh":0,
			"name":"Text",
			"rotation":[
				0.5331704020500183,
				0.3940090835094452,
				-0.30782607197761536,
				0.6824436187744141
			],
			"translation":[
				-0.5880944132804871,
				0,
				1.0239262580871582
			]
		},
		{
			"mesh":1,
			"name":"Plane",
			"translation":[
				0,
				-0.03853526711463928,
				0
			]
		}
	],
	"meshes":[
		{
			"name":"Text",
			"primitives":[
				{
					"attributes":{
						"POSITION":0,
						"NORMAL":1,
						"TEXCOORD_0":2
					},
					"indices":3
				}
			]
		},
		{
			"name":"Plane",
			"primitives":[
				{
					"attributes":{
						"POSITION":4,
						"NORMAL":5,
						"TEXCOORD_0":6
					},
					"indices":7
				}
			]
		}
	],
	"accessors":[
		{
			"bufferView":0,
			"componentType":5126,
			"count":3986,
			"max":[
				2.390000104904175,
				0,
				0.009000000543892384
			],
			"min":[
				0.025999998673796654,
				-0.060666605830192566,
				-0.6820000410079956
			],
			"type":"VEC3"
		},
		{
			"bufferView":1,
			"componentType":5126,
			"count":3986,
			"type":"VEC3"
		},
		{
			"bufferView":2,
			"componentType":5126,
			"count":3986,
			"type":"VEC2"
		},
		{
			"bufferView":3,
			"componentType":5123,
			"count":7728,
			"type":"SCALAR"
		},
		{
			"bufferView":4,
			"componentType":5126,
			"count":4,
			"max":[
				1,
				0,
				1
			],
			"min":[
				-1,
				0,
				-1
			],
			"type":"VEC3"
		},
		{
			"bufferView":5,
			"componentType":5126,
			"count":4,
			"type":"VEC3"
		},
		{
			"bufferView":6,
			"componentType":5126,
			"count":4,
			"type":"VEC2"
		},
		{
			"bufferView":7,
			"componentType":5123,
			"count":6,
			"type":"SCALAR"
		}
	],
	"bufferViews":[
		{
			"buffer":0,
			"byteLength":47832,
			"byteOffset":0,
			"target":34962
		},
		{
			"buffer":0,
			"byteLength":47832,
			"byteOffset":47832,
			"target":34962
		},
		{
			"buffer":0,
			"byteLength":31888,
			"byteOffset":95664,
			"target":34962
		},
		{
			"buffer":0,
			"byteLength":15456,
			"byteOffset":127552,
			"target":34963
		},
		{
			"buffer":0,
			"byteLength":48,
			"byteOffset":143008,
			"target":34962
		},
		{
			"buffer":0,
			"byteLength":48,
			"byteOffset":143056,
			"target":34962
		},
		{
			"buffer":0,
			"byteLength":32,
			"byteOffset":143104,
			"target":34962
		},
		{
			"buffer":0,
			"byteLength":12,
			"byteOffset":143136,
			"target":34963
		}
	],
	"buffers":[
		{
			"byteLength":143148,
			"uri":"aboba.bin"
		}
	]
}
