{
    "asset" : {
        "generator" : "Khronos glTF Blender I/O v1.5.17",
        "version" : "2.0"
    },
    "scene" : 0,
    "scenes" : [
        {
            "name" : "Scene",
            "nodes" : [
                0,
                1,
                3,
                4,
                5,
                6
            ]
        }
    ],
    "nodes" : [
        {
            "mesh" : 0,
            "name" : "Bistro_Research_Exterior__lod0_Vespa_3937.001",
            "scale" : [
                0.003000000026077032,
                0.003000000026077032,
                0.003000000026077032
            ],
            "translation" : [
                1.2437481880187988,
                -0.07005961239337921,
                -0.08045204728841782
            ]
        },
        {
            "mesh" : 1,
            "name" : "Plane"
        },
        {
            "camera" : 0,
            "name" : "Camera_Orientation",
            "rotation" : [
                -0.7071067690849304,
                0,
                0,
                0.7071067690849304
            ]
        },
        {
            "children" : [
                2
            ],
            "name" : "Camera",
            "rotation" : [
                -0.10503372550010681,
                0.8843858242034912,
                -0.38580504059791565,
                -0.2407989203929901
            ],
            "scale" : [
                0.9704838395118713,
                0.9704838395118713,
                0.9704837799072266
            ],
            "translation" : [
                -0.5336530208587646,
                0.7035115361213684,
                -0.579781174659729
            ]
        },
        {
            "mesh" : 2,
            "name" : "Plane.001",
            "rotation" : [
                0.001120906206779182,
                0.7071058750152588,
                -0.7071059346199036,
                0.001120906206779182
            ],
            "translation" : [
                0,
                0.9990000128746033,
                0.996999979019165
            ]
        },
        {
            "mesh" : 3,
            "name" : "Plane.002",
            "rotation" : [
                -0.7071068286895752,
                0.7071067690849304,
                0,
                -3.090862321641907e-08
            ],
            "translation" : [
                1,
                1,
                0
            ]
        },
        {
            "mesh" : 4,
            "name" : "Plane.003",
            "rotation" : [
                0.7071068286895752,
                0,
                0,
                0.7071068286895752
            ],
            "translation" : [
                0,
                1,
                -1
            ]
        }
    ],
    "cameras" : [
        {
            "name" : "Camera.001",
            "perspective" : {
                "aspectRatio" : 1.7777777777777777,
                "yfov" : 0.937270173412135,
                "zfar" : 1000,
                "znear" : 0.10000000149011612
            },
            "type" : "perspective"
        }
    ],
    "animations" : [
        {
            "channels" : [
                {
                    "sampler" : 0,
                    "target" : {
                        "node" : 3,
                        "path" : "rotation"
                    }
                },
                {
                    "sampler" : 1,
                    "target" : {
                        "node" : 3,
                        "path" : "translation"
                    }
                }
            ],
            "name" : "CameraAction.008",
            "samplers" : [
                {
                    "input" : 23,
                    "interpolation" : "LINEAR",
                    "output" : 24
                },
                {
                    "input" : 25,
                    "interpolation" : "LINEAR",
                    "output" : 26
                }
            ]
        }
    ],
    "materials" : [
        {
            "doubleSided" : true,
            "name" : "Vespa.001",
            "normalTexture" : {
                "index" : 0
            },
            "pbrMetallicRoughness" : {
                "baseColorTexture" : {
                    "index" : 1
                },
                "roughnessFactor" : 0.5527864098548889
            }
        },
        {
            "doubleSided" : true,
            "name" : "Vespa_Odometer.001",
            "normalTexture" : {
                "index" : 2
            },
            "pbrMetallicRoughness" : {
                "baseColorTexture" : {
                    "index" : 3
                },
                "roughnessFactor" : 0.5527864098548889
            }
        },
        {
            "doubleSided" : true,
            "name" : "Material.006",
            "pbrMetallicRoughness" : {
                "metallicFactor" : 0,
                "roughnessFactor" : 0.5
            }
        }
    ],
    "meshes" : [
        {
            "name" : "Mesh.1296",
            "primitives" : [
                {
                    "attributes" : {
                        "POSITION" : 0,
                        "NORMAL" : 1,
                        "TEXCOORD_0" : 2,
                        "TEXCOORD_1" : 3
                    },
                    "indices" : 4,
                    "material" : 0
                },
                {
                    "attributes" : {
                        "POSITION" : 5,
                        "NORMAL" : 6,
                        "TEXCOORD_0" : 7,
                        "TEXCOORD_1" : 8
                    },
                    "indices" : 9,
                    "material" : 1
                }
            ]
        },
        {
            "name" : "Plane",
            "primitives" : [
                {
                    "attributes" : {
                        "POSITION" : 10,
                        "NORMAL" : 11,
                        "TEXCOORD_0" : 12
                    },
                    "indices" : 13,
                    "material" : 2
                }
            ]
        },
        {
            "name" : "Plane.001",
            "primitives" : [
                {
                    "attributes" : {
                        "POSITION" : 14,
                        "NORMAL" : 15,
                        "TEXCOORD_0" : 16
                    },
                    "indices" : 13,
                    "material" : 2
                }
            ]
        },
        {
            "name" : "Plane.002",
            "primitives" : [
                {
                    "attributes" : {
                        "POSITION" : 17,
                        "NORMAL" : 18,
                        "TEXCOORD_0" : 19
                    },
                    "indices" : 13,
                    "material" : 2
                }
            ]
        },
        {
            "name" : "Plane.003",
            "primitives" : [
                {
                    "attributes" : {
                        "POSITION" : 20,
                        "NORMAL" : 21,
                        "TEXCOORD_0" : 22
                    },
                    "indices" : 13,
                    "material" : 2
                }
            ]
        }
    ],
    "textures" : [
        {
            "sampler" : 0,
            "source" : 0
        },
        {
            "sampler" : 0,
            "source" : 1
        },
        {
            "sampler" : 0,
            "source" : 2
        },
        {
            "sampler" : 0,
            "source" : 3
        }
    ],
    "images" : [
        {
            "mimeType" : "image/png",
            "name" : "Vespa_Normal",
            "uri" : "Vespa_Normal.png"
        },
        {
            "mimeType" : "image/png",
            "name" : "Vespa_BaseColor",
            "uri" : "Vespa_BaseColor.png"
        },
        {
            "mimeType" : "image/png",
            "name" : "Vespa_Odometer_Normal",
            "uri" : "Vespa_Odometer_Normal.png"
        },
        {
            "mimeType" : "image/png",
            "name" : "Vespa_Odometer_BaseColor",
            "uri" : "Vespa_Odometer_BaseColor.png"
        }
    ],
    "accessors" : [
        {
            "bufferView" : 0,
            "componentType" : 5126,
            "count" : 26626,
            "max" : [
                -397.38525390625,
                152.17160034179688,
                104.22303009033203
            ],
            "min" : [
                -526.2227783203125,
                23.42779541015625,
                -36.97721862792969
            ],
            "type" : "VEC3"
        },
        {
            "bufferView" : 1,
            "componentType" : 5126,
            "count" : 26626,
            "type" : "VEC3"
        },
        {
            "bufferView" : 2,
            "componentType" : 5126,
            "count" : 26626,
            "type" : "VEC2"
        },
        {
            "bufferView" : 3,
            "componentType" : 5126,
            "count" : 26626,
            "type" : "VEC2"
        },
        {
            "bufferView" : 4,
            "componentType" : 5123,
            "count" : 109371,
            "type" : "SCALAR"
        },
        {
            "bufferView" : 5,
            "componentType" : 5126,
            "count" : 108,
            "max" : [
                -471.91455078125,
                134.8658447265625,
                15.005017280578613
            ],
            "min" : [
                -478.987060546875,
                131.54888916015625,
                6.797388553619385
            ],
            "type" : "VEC3"
        },
        {
            "bufferView" : 6,
            "componentType" : 5126,
            "count" : 108,
            "type" : "VEC3"
        },
        {
            "bufferView" : 7,
            "componentType" : 5126,
            "count" : 108,
            "type" : "VEC2"
        },
        {
            "bufferView" : 8,
            "componentType" : 5126,
            "count" : 108,
            "type" : "VEC2"
        },
        {
            "bufferView" : 9,
            "componentType" : 5123,
            "count" : 492,
            "type" : "SCALAR"
        },
        {
            "bufferView" : 10,
            "componentType" : 5126,
            "count" : 4,
            "max" : [
                1,
                0,
                1
            ],
            "min" : [
                -1,
                0,
                -1
            ],
            "type" : "VEC3"
        },
        {
            "bufferView" : 11,
            "componentType" : 5126,
            "count" : 4,
            "type" : "VEC3"
        },
        {
            "bufferView" : 12,
            "componentType" : 5126,
            "count" : 4,
            "type" : "VEC2"
        },
        {
            "bufferView" : 13,
            "componentType" : 5123,
            "count" : 6,
            "type" : "SCALAR"
        },
        {
            "bufferView" : 14,
            "componentType" : 5126,
            "count" : 4,
            "max" : [
                1,
                0,
                1
            ],
            "min" : [
                -1,
                0,
                -1
            ],
            "type" : "VEC3"
        },
        {
            "bufferView" : 15,
            "componentType" : 5126,
            "count" : 4,
            "type" : "VEC3"
        },
        {
            "bufferView" : 16,
            "componentType" : 5126,
            "count" : 4,
            "type" : "VEC2"
        },
        {
            "bufferView" : 17,
            "componentType" : 5126,
            "count" : 4,
            "max" : [
                1,
                0,
                1
            ],
            "min" : [
                -1,
                0,
                -1
            ],
            "type" : "VEC3"
        },
        {
            "bufferView" : 18,
            "componentType" : 5126,
            "count" : 4,
            "type" : "VEC3"
        },
        {
            "bufferView" : 19,
            "componentType" : 5126,
            "count" : 4,
            "type" : "VEC2"
        },
        {
            "bufferView" : 20,
            "componentType" : 5126,
            "count" : 4,
            "max" : [
                1,
                0,
                1
            ],
            "min" : [
                -1,
                0,
                -1
            ],
            "type" : "VEC3"
        },
        {
            "bufferView" : 21,
            "componentType" : 5126,
            "count" : 4,
            "type" : "VEC3"
        },
        {
            "bufferView" : 22,
            "componentType" : 5126,
            "count" : 4,
            "type" : "VEC2"
        },
        {
            "bufferView" : 23,
            "componentType" : 5126,
            "count" : 182,
            "max" : [
                8.916666666666666
            ],
            "min" : [
                1.375
            ],
            "type" : "SCALAR"
        },
        {
            "bufferView" : 24,
            "componentType" : 5126,
            "count" : 182,
            "type" : "VEC4"
        },
        {
            "bufferView" : 25,
            "componentType" : 5126,
            "count" : 175,
            "max" : [
                8.916666666666666
            ],
            "min" : [
                1.6666666666666667
            ],
            "type" : "SCALAR"
        },
        {
            "bufferView" : 26,
            "componentType" : 5126,
            "count" : 175,
            "type" : "VEC3"
        }
    ],
    "bufferViews" : [
        {
            "buffer" : 0,
            "byteLength" : 319512,
            "byteOffset" : 0
        },
        {
            "buffer" : 0,
            "byteLength" : 319512,
            "byteOffset" : 319512
        },
        {
            "buffer" : 0,
            "byteLength" : 213008,
            "byteOffset" : 639024
        },
        {
            "buffer" : 0,
            "byteLength" : 213008,
            "byteOffset" : 852032
        },
        {
            "buffer" : 0,
            "byteLength" : 218742,
            "byteOffset" : 1065040
        },
        {
            "buffer" : 0,
            "byteLength" : 1296,
            "byteOffset" : 1283784
        },
        {
            "buffer" : 0,
            "byteLength" : 1296,
            "byteOffset" : 1285080
        },
        {
            "buffer" : 0,
            "byteLength" : 864,
            "byteOffset" : 1286376
        },
        {
            "buffer" : 0,
            "byteLength" : 864,
            "byteOffset" : 1287240
        },
        {
            "buffer" : 0,
            "byteLength" : 984,
            "byteOffset" : 1288104
        },
        {
            "buffer" : 0,
            "byteLength" : 48,
            "byteOffset" : 1289088
        },
        {
            "buffer" : 0,
            "byteLength" : 48,
            "byteOffset" : 1289136
        },
        {
            "buffer" : 0,
            "byteLength" : 32,
            "byteOffset" : 1289184
        },
        {
            "buffer" : 0,
            "byteLength" : 12,
            "byteOffset" : 1289216
        },
        {
            "buffer" : 0,
            "byteLength" : 48,
            "byteOffset" : 1289228
        },
        {
            "buffer" : 0,
            "byteLength" : 48,
            "byteOffset" : 1289276
        },
        {
            "buffer" : 0,
            "byteLength" : 32,
            "byteOffset" : 1289324
        },
        {
            "buffer" : 0,
            "byteLength" : 48,
            "byteOffset" : 1289356
        },
        {
            "buffer" : 0,
            "byteLength" : 48,
            "byteOffset" : 1289404
        },
        {
            "buffer" : 0,
            "byteLength" : 32,
            "byteOffset" : 1289452
        },
        {
            "buffer" : 0,
            "byteLength" : 48,
            "byteOffset" : 1289484
        },
        {
            "buffer" : 0,
            "byteLength" : 48,
            "byteOffset" : 1289532
        },
        {
            "buffer" : 0,
            "byteLength" : 32,
            "byteOffset" : 1289580
        },
        {
            "buffer" : 0,
            "byteLength" : 728,
            "byteOffset" : 1289612
        },
        {
            "buffer" : 0,
            "byteLength" : 2912,
            "byteOffset" : 1290340
        },
        {
            "buffer" : 0,
            "byteLength" : 700,
            "byteOffset" : 1293252
        },
        {
            "buffer" : 0,
            "byteLength" : 2100,
            "byteOffset" : 1293952
        }
    ],
    "samplers" : [
        {
            "magFilter" : 9729,
            "minFilter" : 9987
        }
    ],
    "buffers" : [
        {
            "byteLength" : 1296052,
            "uri" : "vespa.bin"
        }
    ]
}
